<?xml version="1.0" encoding="UTF-8"?>
<svg version="1.1" xmlns="http://www.w3.org/2000/svg" width="512" height="512">
<path d="M0 0 C1.88084008 -0.00417518 3.76167764 -0.00965371 5.64251053 -0.01631981 C10.80010763 -0.0307689 15.95754486 -0.02653132 21.11515069 -0.019153 C26.68173232 -0.01442232 32.24827932 -0.02693031 37.81484985 -0.03717041 C48.71606906 -0.05436573 59.61723065 -0.05519688 70.5184599 -0.04995751 C79.37923683 -0.04591592 88.23999674 -0.04735924 97.10077286 -0.05270576 C98.36194222 -0.05345419 99.62311159 -0.05420261 100.9224982 -0.05497371 C103.48457336 -0.05650519 106.04664851 -0.05804354 108.60872366 -0.05958868 C125.81065363 -0.06941723 143.01257543 -0.07358142 160.21450615 -0.06596279 C160.88691888 -0.06566562 161.55933161 -0.06536844 162.25212049 -0.06506227 C167.7123001 -0.06261342 173.17247964 -0.06000179 178.63265918 -0.05737813 C199.92864884 -0.04727662 221.22455966 -0.05563032 242.52053833 -0.07887268 C266.45778313 -0.10495556 290.39497412 -0.11774093 314.33223832 -0.11068493 C327.00249118 -0.10719141 339.6726793 -0.1094336 352.34292221 -0.12693596 C363.12889722 -0.14165067 373.91476189 -0.14230287 384.70073472 -0.12486505 C390.20285311 -0.11634671 395.70477432 -0.11422604 401.20688248 -0.1295166 C406.24654659 -0.14334853 411.28584431 -0.13861951 416.32548715 -0.11927737 C418.14572374 -0.11551249 419.96598958 -0.11845335 421.78620015 -0.12888902 C434.03564202 -0.1941075 444.87936731 0.4858682 454.8286438 8.55174255 C460.59352377 14.26797375 465.21921798 21.0668359 465.93320596 29.30786633 C465.93531924 30.85013335 465.93531924 30.85013335 465.9374752 32.42355728 C465.9439241 33.61717448 465.95037299 34.81079167 465.9570173 36.04057908 C465.9539201 37.3430942 465.95082289 38.64560933 465.94763184 39.9875946 C465.95136986 41.39220542 465.95597199 42.79681415 465.96136248 44.20141959 C465.97358921 48.05651794 465.9733324 51.91152949 465.97097373 55.76664281 C465.97056548 59.92629027 465.98160555 64.08590994 465.99108887 68.24554443 C466.00769829 76.39356611 466.0131984 84.54155884 466.01431362 92.68959603 C466.01526417 99.31360908 466.01937481 105.93761259 466.02571487 112.56162262 C466.04332751 131.34561913 466.05255377 150.12959279 466.05105393 168.91359761 C466.05093406 170.43241637 466.05093406 170.43241637 466.05081177 171.98191833 C466.05073001 172.99570186 466.05064824 174.00948538 466.05056401 175.05398962 C466.04975121 191.48156892 466.06888721 207.9090565 466.0970885 224.33660927 C466.12582285 241.20793919 466.13962848 258.07922439 466.13790095 274.9505794 C466.13723721 284.42107945 466.14272221 293.89148337 466.16425705 303.36196136 C466.18247614 311.42589834 466.18681024 319.48969561 466.1732382 327.55364427 C466.16671208 331.6663138 466.16657833 335.77871536 466.1839447 339.89135933 C466.19969656 343.66050171 466.19679064 347.42916414 466.17937644 351.19829497 C466.17486531 353.1988135 466.18994732 355.19934704 466.20585573 357.19980741 C466.1239167 367.92636968 463.84853574 375.87301114 456.3911438 383.70799255 C447.58044257 392.35776773 437.46763484 394.51684054 425.34660339 394.50793457 C424.64233497 394.508789 423.93806654 394.50964342 423.21245664 394.51052374 C420.87103221 394.51216059 418.52968068 394.50668679 416.18826294 394.50120544 C414.5025228 394.50092316 412.81678254 394.50108212 411.13104248 394.50164795 C406.56754212 394.50193431 402.00406817 394.49606365 397.44057393 394.48907399 C392.66664721 394.4828136 387.89271986 394.48223453 383.11878967 394.48104858 C374.08440371 394.47794319 365.05002988 394.46974047 356.01564926 394.45969909 C345.72789714 394.44851338 335.44014443 394.44302131 325.15238774 394.43800366 C303.99498716 394.4275572 282.83759749 394.40997308 261.6802063 394.38768005 C262.28730777 397.58082118 262.90654358 400.77149621 263.52786255 403.9618988 C263.69822021 404.85872375 263.86857788 405.75554871 264.0440979 406.67955017 C266.31495936 418.26173854 269.98770003 429.6015693 279.9927063 436.63768005 C287.93476121 441.5849734 295.78132659 443.4484013 305.1098938 443.59861755 C306.31774536 443.62697693 307.52559692 443.6553363 308.77005005 443.68455505 C311.28552882 443.73647412 313.80117637 443.78079384 316.31692505 443.81736755 C325.0666189 444.0410019 332.47289286 444.67798386 339.2973938 450.79393005 C344.83262757 457.17352152 347.06338734 464.09962486 346.9536438 472.4072113 C346.28407827 479.7054756 343.32555805 485.94415509 337.80323219 490.80470324 C331.15568176 495.76126936 323.82575672 496.97888205 315.73733521 496.89561462 C314.3140261 496.90497457 314.3140261 496.90497457 312.86196327 496.9145236 C309.70997244 496.93036783 306.55876417 496.91788287 303.4067688 496.90525818 C301.13582918 496.91068309 298.86489309 496.91780782 296.59396362 496.92649841 C290.44523187 496.94469054 284.29676943 496.93768104 278.14803314 496.92498207 C271.70383495 496.91483319 265.25965933 496.924253 258.81546021 496.93052673 C247.30246281 496.93826293 235.78960272 496.92585645 224.27662683 496.90548939 C213.85315013 496.8876201 203.42985166 496.89072475 193.00637817 496.90916443 C180.88089086 496.93060523 168.75554332 496.93852013 156.63003349 496.92671537 C150.2190816 496.92048921 143.80825229 496.91962082 137.39730835 496.93286133 C131.36924307 496.94444213 125.34151335 496.9363529 119.31348419 496.9132843 C117.10525316 496.90800919 114.89699373 496.90949038 112.68877411 496.91833496 C109.66649791 496.9293212 106.64528639 496.91548923 103.62307739 496.89561462 C102.3229518 496.90899895 102.3229518 496.90899895 100.99656105 496.92265368 C93.0164193 496.82137413 85.85963851 494.59156864 79.8052063 489.26268005 C74.08577736 482.90775901 71.95462469 475.52111574 72.2895813 467.0634613 C73.21335032 460.73564353 76.16177993 454.90610642 80.6802063 450.38768005 C86.75463767 445.96991178 91.23695991 444.29980016 98.7739563 444.17674255 C99.9702063 444.14838318 101.1664563 444.1200238 102.3989563 444.09080505 C104.88840193 444.03937023 107.37800316 443.99491612 109.8677063 443.95799255 C122.82618658 443.62572383 133.25214358 441.57773232 143.3052063 433.20018005 C151.5453027 423.44217115 154.68848585 412.58962834 156.73391724 400.14500427 C156.91178772 399.06629059 157.0896582 397.9875769 157.2729187 396.87617493 C157.40732361 396.05497162 157.54172852 395.23376831 157.6802063 394.38768005 C156.37348355 394.39044543 156.37348355 394.39044543 155.04036236 394.39326668 C133.81466638 394.43749185 112.58897837 394.47055906 91.36324596 394.4913044 C81.09852122 394.50160409 70.83382728 394.5156394 60.56912231 394.53855896 C51.61935302 394.55853289 42.66960604 394.57140599 33.71981508 394.57585704 C28.98376184 394.57845765 24.24777245 394.58454289 19.51173973 394.59914017 C15.04748208 394.61278738 10.58331416 394.61688835 6.11903763 394.61389542 C4.48690744 394.6144424 2.85477402 394.61837709 1.22266197 394.626091 C-13.61168643 394.69272165 -26.31813354 394.20047068 -37.6322937 383.57518005 C-43.75375544 377.12447635 -46.43866221 370.43185905 -46.45401478 361.59510517 C-46.45847262 360.40485338 -46.46293047 359.21460158 -46.4675234 357.98828155 C-46.46733903 356.67925862 -46.46715467 355.3702357 -46.46696472 354.02154541 C-46.47026448 352.61794946 -46.47399028 351.21435447 -46.4781062 349.81076068 C-46.4881215 345.94923548 -46.49184223 342.08772583 -46.49449551 338.22618949 C-46.49839992 334.06312454 -46.50797811 329.90007188 -46.51670837 325.73701477 C-46.53646815 315.68145421 -46.54653804 305.62589265 -46.55543616 295.57031754 C-46.55981956 290.83506217 -46.56518621 286.09980793 -46.57042503 281.36455345 C-46.58743626 265.62398034 -46.60193076 249.88340793 -46.60917377 234.14282703 C-46.61108367 230.05834769 -46.613004 225.97386836 -46.61495972 221.88938904 C-46.61544346 220.8742122 -46.6159272 219.85903536 -46.6164256 218.81309559 C-46.62472716 202.3653186 -46.65006669 185.9176143 -46.68254039 169.46986905 C-46.71560754 152.5839222 -46.73362219 135.69801229 -46.73681802 118.81203288 C-46.73898335 109.33090913 -46.74773552 99.84989141 -46.77327919 90.36879921 C-46.79498141 82.29491111 -46.80303894 74.22115481 -46.79331241 66.14724085 C-46.78876641 62.02862809 -46.79067123 57.9102873 -46.81007385 53.79171181 C-46.82769704 50.01823294 -46.82671499 46.24522461 -46.81117656 42.4717408 C-46.80767646 40.46640451 -46.82383304 38.46106332 -46.84078103 36.45579559 C-46.78897448 29.19101149 -45.98736157 23.71149088 -42.3197937 17.38768005 C-41.86217651 16.58975037 -41.40455933 15.79182068 -40.93307495 14.9697113 C-30.51388458 0.79585773 -16.24807854 -0.05856404 0 0 Z M-25.7572937 24.95018005 C-27.98779372 28.42976009 -28.4446677 31.04152173 -28.44284153 35.0828352 C-28.44483258 36.05370892 -28.44682363 37.02458264 -28.44887501 38.02487677 C-28.44596217 39.09393093 -28.44304933 40.16298508 -28.44004822 41.26443481 C-28.44090264 42.39814209 -28.44175707 43.53184937 -28.44263738 44.69991142 C-28.44429135 48.51862029 -28.43877213 52.33728574 -28.43331909 56.1559906 C-28.4324811 58.88546273 -28.43315095 61.61493399 -28.4337616 64.34440613 C-28.43428645 70.23098899 -28.43114369 76.11756078 -28.42552376 82.00414085 C-28.41740352 90.51519139 -28.414793 99.02623656 -28.41353577 107.53729055 C-28.41134607 121.3452522 -28.40468822 135.15320794 -28.39523315 148.96116638 C-28.3860569 162.37587962 -28.37897711 175.79059126 -28.37472534 189.20530701 C-28.37446262 190.03191661 -28.37419989 190.85852622 -28.37392921 191.7101846 C-28.37262419 195.85696042 -28.37136048 200.00373626 -28.37011731 204.1505121 C-28.35974727 238.56290571 -28.34205696 272.97529215 -28.3197937 307.38768005 C-23.0397937 307.38768005 -17.7597937 307.38768005 -12.3197937 307.38768005 C-12.31740535 306.00924518 -12.31501699 304.6308103 -12.31255627 303.21060467 C-12.25523523 270.51236165 -12.18253243 237.81419168 -12.09080742 205.1160276 C-12.07953883 201.09419267 -12.06840045 197.07235737 -12.05734253 193.05052185 C-12.05513885 192.24982402 -12.05293516 191.4491262 -12.0506647 190.6241648 C-12.01526206 177.64788302 -11.9904147 164.67160131 -11.96944668 151.6952891 C-11.94770822 138.38707982 -11.9146765 125.07893338 -11.87109214 111.77077752 C-11.84454162 103.55445626 -11.82687134 95.33821336 -11.82044766 87.1218513 C-11.81520413 81.49274373 -11.79902223 75.86373487 -11.77412804 70.23468014 C-11.76007723 66.98369654 -11.75257298 63.73292582 -11.75478554 60.48190689 C-11.7564254 56.96198177 -11.73984909 53.44260962 -11.71852112 49.92276001 C-11.72336869 48.88872439 -11.72821627 47.85468877 -11.73321074 46.78931874 C-11.71902593 45.380034 -11.71902593 45.380034 -11.70455456 43.94227886 C-11.70265596 43.12929763 -11.70075735 42.31631641 -11.69880122 41.47869939 C-11.22650983 38.87302433 -10.36324052 38.01870484 -8.3197937 36.38768005 C-5.34263883 34.89910262 -2.66140365 35.26225097 0.66183281 35.26183891 C1.39231954 35.26038547 2.12280628 35.25893203 2.87542897 35.25743455 C5.34836955 35.25375534 7.82124922 35.25726983 10.29418945 35.26069641 C12.07497888 35.25954535 13.85576806 35.25795792 15.63655674 35.25596917 C20.54980187 35.25177374 25.4630277 35.25386751 30.37627292 35.25695539 C35.66743526 35.25920843 40.95859418 35.25573033 46.24975586 35.25297546 C56.62351787 35.24851757 66.99727267 35.24949438 77.37103496 35.2523881 C85.79963513 35.2546423 94.22823327 35.25495459 102.65683365 35.25386429 C103.85436383 35.25371106 105.05189402 35.25355782 106.28571299 35.25339995 C108.718151 35.25308023 111.15058901 35.25275602 113.58302702 35.25242735 C136.41870322 35.24957244 159.25437541 35.25285963 182.09005095 35.25822772 C201.69936907 35.26269463 221.30868126 35.26192078 240.91799927 35.25730896 C263.66631929 35.25196143 286.41463579 35.24984834 309.16295636 35.25292122 C311.58728671 35.25323979 314.01161706 35.25355416 316.43594742 35.25386429 C318.22536164 35.2540957 318.22536164 35.2540957 320.05092563 35.25433179 C328.47187725 35.25519649 336.89282665 35.25373505 345.31377792 35.25138474 C355.57271379 35.24858451 365.831642 35.24932968 376.09057699 35.25466548 C381.32842992 35.25729964 386.56627008 35.25831236 391.80412292 35.25501633 C396.59438948 35.25204748 401.38463136 35.25365611 406.17489566 35.25899388 C407.91244578 35.26011554 409.64999796 35.25953238 411.38754676 35.25711809 C413.74069375 35.25409801 416.09375507 35.25717545 418.44689751 35.26183891 C419.75660794 35.26200127 421.06631838 35.26216362 422.41571701 35.26233089 C427.4738682 35.4565527 427.4738682 35.4565527 429.6802063 36.38768005 C430.62847377 39.23248247 430.80922899 40.99304746 430.8188715 43.94227886 C430.82434594 44.88180202 430.82982039 45.82132518 430.83546072 46.78931874 C430.83692788 48.34037217 430.83692788 48.34037217 430.83842468 49.92276001 C430.84336266 51.01971532 430.84830064 52.11667062 430.85338825 53.246867 C430.86880825 56.94118267 430.87713606 60.63548089 430.88552856 64.32981873 C430.89510355 66.97062435 430.90506981 69.61142579 430.91552734 72.25222778 C430.93729645 77.9472703 430.95543935 83.64231517 430.97113228 89.33737755 C430.99382695 97.5715215 431.02197034 105.8056397 431.05145156 114.03976182 C431.0991324 127.39848036 431.14239526 140.75720943 431.18289185 154.11595154 C431.22224426 167.09414997 431.26366988 180.07233905 431.30789185 193.05052185 C431.31061612 193.85024849 431.31334039 194.64997514 431.31614722 195.47393592 C431.32982665 199.48585523 431.34354693 203.4977744 431.35728753 207.5096935 C431.47126005 240.80233644 431.57799428 274.09499891 431.6802063 307.38768005 C436.9602063 307.38768005 442.2402063 307.38768005 447.6802063 307.38768005 C447.7714534 272.2186916 447.84224328 237.04973044 447.88446762 201.88064849 C447.88947045 197.72877665 447.89464774 193.57690505 447.89993286 189.42503357 C447.9009821 188.59846945 447.90203134 187.77190533 447.90311238 186.92029382 C447.92051841 173.53604326 447.95205718 160.15186141 447.98881748 146.76765161 C448.02622141 133.03458139 448.04844099 119.30154717 448.05656028 105.5684281 C448.0620492 97.0940868 448.07938644 88.61993972 448.11187217 80.1456582 C448.1330133 74.33480306 448.13940727 68.52404834 448.13421181 62.71315753 C448.13164931 59.36026534 448.1377668 56.00798623 448.1570282 52.6551075 C448.17689868 49.01828418 448.17215512 45.38229509 448.16122437 41.74545288 C448.17287573 40.68805009 448.1845271 39.63064731 448.19653153 38.54120201 C448.14553454 32.27342501 447.42501348 28.47914636 443.6802063 23.38768005 C438.19382745 19.13293727 434.07001364 18.23935947 427.30559254 18.25345898 C426.54475962 18.25110675 425.7839267 18.24875452 425.00003824 18.24633101 C422.42985652 18.23963102 419.85972525 18.24009953 417.28953552 18.24050903 C415.43648695 18.23721103 413.58343909 18.2334856 411.73039216 18.22936755 C406.62190582 18.21933222 401.51343123 18.2156283 396.40493643 18.21297824 C390.90171217 18.20907975 385.39849724 18.19950112 379.89527893 18.19076538 C366.59715554 18.17098843 353.29903138 18.16093335 340.00089696 18.15203759 C333.74232402 18.14765684 327.48375194 18.14228949 321.22517967 18.13704872 C300.42684391 18.12003546 279.62850846 18.10551555 258.83016682 18.09829998 C257.48490701 18.09782522 256.13964721 18.09734933 254.79438741 18.09687232 C253.79368917 18.09651775 253.79368917 18.09651775 252.7727748 18.09615603 C249.39271615 18.09495482 246.01265751 18.09373937 242.63259888 18.09251404 C241.9618144 18.09227389 241.29102992 18.09203374 240.59991863 18.09178631 C218.85004566 18.08389287 197.10022721 18.06046036 175.35037805 18.02795809 C152.35883168 17.99366296 129.36730784 17.97395028 106.37573308 17.97065574 C93.84129282 17.96848843 81.3069327 17.9597075 68.77251625 17.93419456 C58.09940803 17.91252068 47.42639941 17.90442084 36.75327168 17.91416135 C31.30624015 17.9187156 25.85941425 17.91675444 20.41241074 17.8973999 C15.42633795 17.87983592 10.44062185 17.8807109 5.45454564 17.89629719 C3.65032833 17.89868356 1.84608675 17.89429666 0.04190663 17.88246854 C-2.41115377 17.86738199 -4.86294504 17.87699881 -7.31597424 17.89269543 C-8.01605603 17.88247322 -8.71613783 17.87225101 -9.43743423 17.86171904 C-16.01999948 17.95361587 -21.25602249 20.21807443 -25.7572937 24.95018005 Z M5.6802063 52.38768005 C5.6802063 136.53768005 5.6802063 220.68768005 5.6802063 307.38768005 C140.3202063 307.38768005 274.9602063 307.38768005 413.6802063 307.38768005 C413.6802063 223.23768005 413.6802063 139.08768005 413.6802063 52.38768005 C279.0402063 52.38768005 144.4002063 52.38768005 5.6802063 52.38768005 Z M-28.3197937 325.38768005 C-31.92534498 360.18120357 -31.92534498 360.18120357 -24.3197937 370.38768005 C-18.67151475 375.88330282 -12.16961946 376.69061293 -4.54948616 376.64215565 C-3.7944677 376.64536213 -3.03944924 376.6485686 -2.26155144 376.65187225 C0.26483789 376.66016426 2.79098966 376.65425078 5.31738281 376.64837646 C7.14842291 376.65139751 8.97946175 376.65528676 10.81049836 376.65996903 C15.83962789 376.67026379 20.86868625 376.66806344 25.89782166 376.66378844 C31.32260551 376.6613239 36.74737211 376.67033199 42.17214966 376.67782593 C52.79890614 376.69058251 63.42563737 376.69236542 74.05240022 376.69002566 C82.68917345 376.68824343 91.32593902 376.68999012 99.96271133 376.69425011 C101.19142479 376.6948453 102.42013824 376.69544048 103.68608544 376.69605371 C106.18213112 376.69726545 108.6781768 376.69847958 111.17422248 376.69969609 C133.92043242 376.71026509 156.66662863 376.70880247 179.41283945 376.70282814 C200.17141213 376.6974709 220.92994233 376.70540169 241.68850708 376.72386169 C265.01483369 376.74456178 288.34113379 376.75527348 311.6674701 376.75128621 C324.01686291 376.7493726 336.36621702 376.75187732 348.71560287 376.76600075 C359.22864701 376.77790227 369.74162861 376.77933322 380.25467359 376.76721058 C385.61878367 376.7613133 390.98277933 376.76024597 396.34688187 376.77221298 C401.25816935 376.78304249 406.16924646 376.78000332 411.08052398 376.7659513 C412.85637149 376.76329629 414.63223534 376.76569606 416.40806685 376.77368716 C430.42530127 377.25356168 430.42530127 377.25356168 442.8364563 371.6337738 C443.2798938 371.03693787 443.7233313 370.44010193 444.1802063 369.82518005 C444.87630005 368.92605896 444.87630005 368.92605896 445.5864563 368.0087738 C453.54204952 356.21744813 447.6802063 339.61184346 447.6802063 325.38768005 C290.6002063 325.38768005 133.5202063 325.38768005 -28.3197937 325.38768005 Z M175.6802063 394.38768005 C174.6902063 400.65768005 173.7002063 406.92768005 172.6802063 413.38768005 C171.84878572 416.69424926 171.06004885 419.71679388 169.9302063 422.88768005 C169.67924194 423.62051208 169.42827759 424.35334412 169.16970825 425.10838318 C166.8816953 431.46358587 163.62392497 436.91210371 159.6802063 442.38768005 C159.3502063 443.04768005 159.0202063 443.70768005 158.6802063 444.38768005 C192.3402063 444.38768005 226.0002063 444.38768005 260.6802063 444.38768005 C257.2152063 438.94268005 257.2152063 438.94268005 253.6802063 433.38768005 C247.76371605 420.83347451 245.63036708 408.03880554 243.6802063 394.38768005 C221.2402063 394.38768005 198.8002063 394.38768005 175.6802063 394.38768005 Z M91.6802063 466.38768005 C90.51571749 469.29119129 90.51571749 469.29119129 90.6802063 472.38768005 C92.45060079 475.13484392 93.74312474 476.91913927 96.6802063 478.38768005 C99.61671212 478.49245867 102.5298619 478.53547338 105.46690369 478.53485107 C106.38796754 478.53852776 107.30903139 478.54220445 108.25800627 478.54599255 C111.36334477 478.5570598 114.46864983 478.56087836 117.57400513 478.56468201 C119.7927613 478.5709443 122.01151643 478.57759089 124.23027039 478.58459473 C130.27161367 478.60202487 136.31294902 478.61256171 142.35431123 478.62080026 C146.12567614 478.62594553 149.89703856 478.63202143 153.66840172 478.63831139 C164.10747475 478.65518315 174.54654662 478.6698186 184.98563099 478.67706013 C187.69510207 478.67897006 190.40457314 478.68089039 193.11404419 478.68284607 C193.78748057 478.68332981 194.46091696 478.68381355 195.1547605 478.68431195 C206.06680465 478.6926143 216.97873925 478.71795452 227.89073554 478.75042675 C239.09037539 478.78348362 250.28996159 478.80117473 261.48965663 478.80470437 C267.77931349 478.80705942 274.06879721 478.81607906 280.35840797 478.84116554 C286.27386623 478.86437817 292.18903651 478.86870689 298.10452843 478.85840416 C300.27777944 478.85790705 302.45104431 478.86427878 304.62425232 478.87796021 C307.58736949 478.89557335 310.5494413 478.88862497 313.51255798 478.87542725 C314.80769679 478.89188112 314.80769679 478.89188112 316.12900001 478.90866739 C320.14172985 478.86540842 322.19556912 478.68499887 325.69068432 476.5407896 C328.25080562 473.77016345 328.6802063 472.14483093 328.6802063 468.38768005 C326.94675755 464.65924042 326.94675755 464.65924042 323.6802063 462.38768005 C320.71622039 462.28286904 317.77537258 462.23988696 314.81085205 462.24050903 C313.41594726 462.234994 313.41594726 462.234994 311.99286258 462.22936755 C308.85755109 462.21830008 305.72227271 462.21448172 302.58694458 462.2106781 C300.34686171 462.20441587 298.10677989 462.19776928 295.86669922 462.19076538 C289.76757365 462.17333567 283.66845593 462.1627987 277.56931162 462.15455985 C273.76244246 462.14941492 269.95557577 462.14333903 266.14870834 462.13704872 C255.61269779 462.12017768 245.07668837 462.10554177 234.54066658 462.09829998 C231.80609257 462.09639003 229.07151856 462.0944697 226.33694458 462.09251404 C225.65726466 462.0920303 224.97758473 462.09154656 224.27730845 462.09104816 C213.26112484 462.08274365 202.24504967 462.05739942 191.22891344 462.02493336 C179.92418726 461.99188778 168.61951421 461.97418653 157.31473339 461.97065574 C150.96530539 461.96829969 144.6160488 461.95926706 138.26666641 461.93419456 C132.29622005 461.91099944 126.32605902 461.90664608 120.35557938 461.91695595 C118.16094517 461.91745348 115.96629732 461.91106966 113.77170563 461.8973999 C110.78196638 461.87981512 107.79326613 461.88672092 104.80352783 461.89993286 C103.92940723 461.88896362 103.05528662 461.87799437 102.15467751 461.86669272 C97.30827629 461.91861445 94.63316555 462.12709094 91.6802063 466.38768005 Z " fill="#000000" transform="translate(46.319793701171875,7.6123199462890625)"/>
<path d="M0 0 C1.17786827 0.56504745 1.17786827 0.56504745 2.37953186 1.14151001 C4.94865788 2.376132 7.51127586 3.62369436 10.07421875 4.87109375 C11.87594729 5.7391122 13.67820067 6.60604205 15.48095703 7.47192383 C19.15152279 9.23543073 22.82023358 11.00271106 26.48779297 12.77246094 C33.32730384 16.06755274 40.19485521 19.30208549 47.06820679 22.52584839 C49.14922789 23.50196122 51.22961828 24.47940591 53.30981445 25.45727539 C56.0758342 26.75753416 58.84203045 28.05741589 61.60839844 29.35693359 C65.81914614 31.33524298 70.0288434 33.3157803 74.23828125 35.296875 C74.94228058 35.62815903 75.64627991 35.95944305 76.37161255 36.30076599 C79.89869778 37.96064351 83.42545344 39.62121593 86.95166016 41.28295898 C93.58046919 44.40591322 100.21231507 47.52190907 106.85461426 50.61608887 C109.98740064 52.0759024 113.11851721 53.53927767 116.24951172 55.00292969 C117.74054307 55.69872286 119.23238797 56.39277568 120.72509766 57.08496094 C122.79668917 58.04571267 124.86538362 59.01246401 126.93359375 59.98046875 C128.11018555 60.52799805 129.28677734 61.07552734 130.49902344 61.63964844 C139.13634171 66.05783968 139.13634171 66.05783968 140.76171875 69.30859375 C140.80054821 71.64377631 140.77149384 73.98016528 140.71313477 76.31494141 C140.68035301 77.81391782 140.64837404 79.31291194 140.61708069 80.81192017 C140.59060802 82.00974562 140.59060802 82.00974562 140.56360054 83.23176956 C140.46405219 88.40031286 140.44012539 93.56985756 140.40600681 98.7391758 C140.37204216 103.25559141 140.31025596 107.76790983 140.18237305 112.28271484 C139.58930391 134.06919226 139.73090329 149.42720234 154.31225586 166.69677734 C156.87036388 169.77092414 158.27624005 171.73145485 158.37329102 175.77978516 C157.69037013 179.72027959 156.94287831 180.96950584 153.76171875 183.30859375 C150.8587607 184.76007278 148.98910096 184.680984 145.76171875 184.30859375 C140.2277285 180.89400402 137.52848879 176.08211835 134.27734375 170.5390625 C133.7771875 169.80300781 133.27703125 169.06695312 132.76171875 168.30859375 C132.10171875 168.30859375 131.44171875 168.30859375 130.76171875 168.30859375 C128.68410119 171.22551377 126.82614428 174.25570334 124.9296875 177.29296875 C122.08916412 181.24411118 119.6566271 183.99277569 114.76171875 184.80859375 C111.06968459 184.19325472 109.42155007 182.89242989 106.76171875 180.30859375 C105.30419799 177.39355224 105.4212276 175.56595907 105.76171875 172.30859375 C107.0377597 169.52564432 108.68649885 167.03668022 110.38671875 164.49609375 C110.81339844 163.83544922 111.24007813 163.17480469 111.6796875 162.49414062 C112.32744141 161.49543945 112.32744141 161.49543945 112.98828125 160.4765625 C113.40819336 159.82765045 113.82810547 159.1787384 114.26074219 158.51016235 C115.76171875 156.30859375 115.76171875 156.30859375 117.32446289 154.41744995 C122.57214455 147.72344064 122.55367923 141.80023491 122.34765625 133.5234375 C122.33916656 132.22660538 122.33067688 130.92977325 122.32192993 129.59364319 C122.29921308 126.17518453 122.24044752 122.75829875 122.17370605 119.3404541 C122.11190634 115.84112194 122.08450465 112.34152359 122.0546875 108.84179688 C121.99387214 101.99601482 121.87641951 95.15452993 121.76171875 88.30859375 C114.17171875 91.93859375 106.58171875 95.56859375 98.76171875 99.30859375 C98.75760986 101.1908667 98.75350098 103.07313965 98.74926758 105.01245117 C98.72985318 111.23923413 98.68752028 117.46553321 98.62962818 123.69207287 C98.5953715 127.46642655 98.5702504 131.24037608 98.56616211 135.01489258 C98.56187608 138.65924079 98.53339049 142.30267751 98.48828697 145.9467411 C98.47532129 147.33530679 98.47100108 148.72398161 98.47556496 150.11260033 C98.48047631 152.06106637 98.45149271 154.00952783 98.42114258 155.95776367 C98.41448074 157.06584885 98.40781891 158.17393402 98.4009552 159.31559753 C97.5182437 163.44857866 96.07439503 164.68657401 92.76171875 167.30859375 C89.57910975 169.23660589 86.28864533 170.90217617 82.95776367 172.55786133 C81.97501968 173.05602356 80.9922757 173.55418579 79.97975159 174.06744385 C76.7390258 175.70641254 73.49109386 177.33043986 70.2421875 178.953125 C67.98142701 180.08900051 65.72087599 181.22529304 63.46052551 182.36198425 C58.72538968 184.73999931 53.9864761 187.11026486 49.24487305 189.4753418 C43.77520886 192.20383201 38.31540462 194.95133626 32.86000365 197.7082184 C27.59662793 200.36702492 22.32440701 203.00792391 17.04860878 205.64200401 C14.81141429 206.76170384 12.57675178 207.88647767 10.34471703 209.01642799 C7.22184952 210.59511836 4.08946169 212.15309514 0.95385742 213.70629883 C0.03669952 214.17533127 -0.88045837 214.64436371 -1.82540894 215.12760925 C-7.0217137 217.67083636 -11.43499299 219.57175987 -17.23828125 218.30859375 C-20.85859229 217.01925165 -24.22690181 215.34611844 -27.64575195 213.59863281 C-28.65647263 213.09787231 -29.6671933 212.59711182 -30.70854187 212.08117676 C-34.03511231 210.42782051 -37.34959116 208.75168151 -40.6640625 207.07421875 C-42.97659238 205.91683873 -45.28968591 204.76058429 -47.60331726 203.60540771 C-52.44417765 201.18410672 -57.27955013 198.7523383 -62.1105957 196.31152344 C-67.69129553 193.49210786 -73.28096183 190.69117149 -78.87596828 187.90026689 C-84.26816666 185.21017128 -89.65452138 182.50862605 -95.03822899 179.80156708 C-97.32589893 178.65228856 -99.61489945 177.50565471 -101.9052372 176.36170197 C-105.10116468 174.76302594 -108.29026392 173.15149415 -111.4777832 171.53613281 C-112.42690582 171.06427551 -113.37602844 170.59241821 -114.35391235 170.10626221 C-115.22154709 169.66322754 -116.08918182 169.22019287 -116.98310852 168.76373291 C-118.11377227 168.19406485 -118.11377227 168.19406485 -119.26727772 167.61288834 C-121.55088485 166.10173101 -122.79996841 164.63039857 -124.23828125 162.30859375 C-124.5990448 159.39788818 -124.5990448 159.39788818 -124.57885742 155.97949219 C-124.57851753 154.05795319 -124.57851753 154.05795319 -124.57817078 152.09759521 C-124.56285199 150.70438282 -124.54720403 149.31117401 -124.53125 147.91796875 C-124.52565222 146.48879441 -124.52138298 145.05961429 -124.51838684 143.63043213 C-124.50695226 139.87544765 -124.47749745 136.12081329 -124.4442749 132.3659668 C-124.41354385 128.53178646 -124.39987505 124.69754934 -124.38476562 120.86328125 C-124.35262605 113.34489276 -124.30144695 105.82679238 -124.23828125 98.30859375 C-125.00307297 98.16923904 -125.76786469 98.02988434 -126.55583191 97.88630676 C-129.77894323 97.19215261 -132.38822232 95.95267583 -135.3515625 94.5078125 C-136.51751953 93.94255859 -137.68347656 93.37730469 -138.88476562 92.79492188 C-140.10681817 92.19540899 -141.32882307 91.59579896 -142.55078125 90.99609375 C-143.76081654 90.40768634 -144.97110102 89.81979106 -146.18164062 89.23242188 C-149.53803596 87.59953092 -152.88871739 85.95544069 -156.23828125 84.30859375 C-157.08567871 83.89730225 -157.93307617 83.48601074 -158.80615234 83.06225586 C-165.69122278 79.69278416 -165.69122278 79.69278416 -167.23828125 76.30859375 C-167.73828125 72.87109375 -167.73828125 72.87109375 -167.23828125 69.30859375 C-164.0124794 65.5413401 -160.8490873 63.32197638 -156.390625 61.21484375 C-154.66984741 60.39258301 -154.66984741 60.39258301 -152.91430664 59.55371094 C-151.66825858 58.97173307 -150.42207967 58.39003529 -149.17578125 57.80859375 C-147.86736594 57.18865054 -146.55934855 56.56786687 -145.25170898 55.94628906 C-141.25460763 54.05116922 -137.24779669 52.17727849 -133.23828125 50.30859375 C-132.0874707 49.77169922 -130.93666016 49.23480469 -129.75097656 48.68164062 C-125.29798572 46.60786037 -120.84241565 44.53978881 -116.38305664 42.47973633 C-106.43072469 37.87943444 -96.51881017 33.19621754 -86.61328125 28.49609375 C-84.99586586 27.72896964 -83.37843421 26.96187981 -81.76098633 26.19482422 C-80.95935562 25.81465149 -80.15772491 25.43447876 -79.33180237 25.04278564 C-78.53008102 24.66257263 -77.72835968 24.28235962 -76.90234375 23.890625 C-76.10034042 23.51025085 -75.2983371 23.12987671 -74.47203064 22.73797607 C-62.55303165 17.08573379 -50.6314308 11.43932157 -38.67927551 5.85745239 C-34.89905159 4.0910848 -31.13033124 2.30241403 -27.3671875 0.5 C-25.76221061 -0.25235226 -24.15679482 -1.00376951 -22.55078125 -1.75390625 C-21.5457959 -2.24721436 -21.5457959 -2.24721436 -20.52050781 -2.75048828 C-12.98249706 -6.20623598 -6.91374905 -3.40206928 0 0 Z M-22.30859375 18.46484375 C-23.00911865 18.79847427 -23.70964355 19.1321048 -24.43139648 19.47584534 C-26.74544483 20.57976057 -29.05423216 21.69426462 -31.36328125 22.80859375 C-32.98901785 23.58604777 -34.61516343 24.36264712 -36.24169922 25.13842773 C-39.59876185 26.74019299 -42.95420008 28.34529022 -46.30859375 29.95263672 C-52.95159014 33.13201187 -59.61633147 36.2647832 -66.28292847 39.39428711 C-69.77027063 41.03173005 -73.25610824 42.6723706 -76.7421875 44.3125 C-78.14338448 44.97153276 -79.54458895 45.6305496 -80.94580078 46.28955078 C-87.67098478 49.45267434 -94.39535188 52.617534 -101.11981201 55.78219604 C-104.52515915 57.38480484 -107.93054932 58.98732216 -111.3359375 60.58984375 C-112.62255882 61.19531201 -113.90917992 61.80078076 -115.19580078 62.40625 C-122.20996094 65.70703125 -129.22412109 69.0078125 -136.23828125 72.30859375 C-134.83877368 75.10760888 -133.19138892 75.42798949 -130.3515625 76.71484375 C-128.75610596 77.44537964 -128.75610596 77.44537964 -127.12841797 78.19067383 C-125.35748779 78.99154419 -125.35748779 78.99154419 -123.55078125 79.80859375 C-120.97499924 80.98618272 -118.40159875 82.16893919 -115.828125 83.3515625 C-115.14232361 83.66606857 -114.45652222 83.98057465 -113.74993896 84.30461121 C-106.14215047 87.79922847 -98.57894045 91.38688791 -91.01693726 94.97924805 C-86.9744702 96.89960338 -82.93050125 98.81679163 -78.88671875 100.734375 C-78.08374863 101.11522247 -77.2807785 101.49606995 -76.45347595 101.88845825 C-70.9799047 104.48415398 -65.50456837 107.07608495 -60.02734375 109.6640625 C-59.28939575 110.01322723 -58.55144775 110.36239197 -57.7911377 110.72213745 C-54.19248022 112.42282859 -50.5891732 114.11183932 -46.97363281 115.77636719 C-40.83167599 118.61163651 -34.81169673 121.48144473 -28.93359375 124.84375 C-19.25613283 130.50081419 -19.25613283 130.50081419 -8.4765625 130.3984375 C-4.09351241 128.69421662 -0.12072363 126.37565065 3.90283203 123.95898438 C8.75776988 121.15630462 13.84154001 118.83113767 18.90777588 116.43865967 C21.40205671 115.25462558 23.88483244 114.04746501 26.36798096 112.84030151 C38.75141255 106.82288146 51.25815483 101.07104535 63.76171875 95.30859375 C66.27367204 94.14894509 68.78527327 92.98853483 71.296875 91.828125 C77.45054539 88.98550913 83.60564075 86.14599169 89.76171875 83.30859375 C89.76171875 82.97859375 89.76171875 82.64859375 89.76171875 82.30859375 C58.74171875 82.30859375 27.72171875 82.30859375 -4.23828125 82.30859375 C-4.56828125 85.93859375 -4.89828125 89.56859375 -5.23828125 93.30859375 C-8.23828125 97.30859375 -8.23828125 97.30859375 -11.61328125 98.24609375 C-15.61346058 98.31506236 -17.14547258 97.76464769 -20.23828125 95.30859375 C-21.93918499 91.90678626 -21.44491441 88.02946815 -21.4765625 84.28515625 C-21.48463425 83.387435 -21.49270599 82.48971375 -21.50102234 81.56478882 C-21.51486416 79.6633294 -21.52558588 77.76184511 -21.53344727 75.86035156 C-21.55067226 72.95199591 -21.59455816 70.04477343 -21.63867188 67.13671875 C-21.6487977 65.29037295 -21.65731415 63.44401748 -21.6640625 61.59765625 C-21.68157059 60.72775055 -21.69907867 59.85784485 -21.71711731 58.96157837 C-21.69540941 52.92095416 -21.69540941 52.92095416 -19.33666992 49.76123047 C-17.06993959 48.19205706 -15.96714599 47.76595524 -13.23828125 47.80859375 C-12.57828125 47.79828125 -11.91828125 47.78796875 -11.23828125 47.77734375 C-9.23828125 48.30859375 -9.23828125 48.30859375 -5.23828125 52.30859375 C-4.90828125 56.26859375 -4.57828125 60.22859375 -4.23828125 64.30859375 C27.11171875 64.30859375 58.46171875 64.30859375 90.76171875 64.30859375 C88.04544845 62.27139102 86.11508826 60.86442082 83.17529297 59.4777832 C82.48321747 59.14865433 81.79114197 58.81952545 81.07809448 58.48042297 C80.33173737 58.13110214 79.58538025 57.78178131 78.81640625 57.421875 C78.02646271 57.04778 77.23651917 56.673685 76.42263794 56.28825378 C73.82936993 55.06149835 71.23311046 53.84122226 68.63671875 52.62109375 C66.8279532 51.76729094 65.01936132 50.91312013 63.2109375 50.05859375 C59.51785409 48.31454894 55.82347418 46.57329635 52.12792969 44.83447266 C47.21431072 42.52249812 42.30403795 40.20350318 37.39453125 37.8828125 C30.46027678 34.60656484 23.51940137 31.34467736 16.57324219 28.09375 C14.05938726 26.91719488 11.54707759 25.73744017 9.03613281 24.5546875 C5.65653623 22.96494002 2.27248239 21.38515485 -1.11328125 19.80859375 C-2.09425781 19.34517578 -3.07523438 18.88175781 -4.0859375 18.40429688 C-4.97925781 17.99115234 -5.87257813 17.57800781 -6.79296875 17.15234375 C-7.56108887 16.79333984 -8.32920898 16.43433594 -9.12060547 16.06445312 C-14.19552309 14.25306911 -17.81851989 16.27687996 -22.30859375 18.46484375 Z M-106.23828125 107.30859375 C-106.23828125 122.48859375 -106.23828125 137.66859375 -106.23828125 153.30859375 C-90.04256134 161.55184998 -90.04256134 161.55184998 -73.828125 169.7578125 C-67.21202747 173.09576677 -60.59834946 176.43800829 -53.99755859 179.80615234 C-48.67652752 182.52093912 -43.3460015 185.21614437 -38.00828934 187.89797592 C-35.97218134 188.92527842 -33.93961104 189.95962345 -31.91068649 191.00104141 C-29.07104596 192.45708499 -26.21992743 193.88771853 -23.36474609 195.31298828 C-22.10670166 195.96897507 -22.10670166 195.96897507 -20.82324219 196.63821411 C-16.22960065 198.92238754 -16.22960065 198.92238754 -11.21533203 198.82495117 C-10.23290527 198.32455322 -9.25047852 197.82415527 -8.23828125 197.30859375 C-7.60346643 197.01059309 -6.96865162 196.71259243 -6.31459999 196.40556145 C-4.01580212 195.32220946 -1.7478931 194.18710521 0.52099609 193.04248047 C1.38018646 192.61303131 2.23937683 192.18358215 3.12460327 191.74111938 C5.95086822 190.32729284 8.77426062 188.90782792 11.59765625 187.48828125 C13.56188765 186.50429957 15.52629652 185.52067208 17.49087524 184.53738403 C22.65141572 181.95330275 27.80953522 179.36442479 32.96716309 176.77453613 C39.16119101 173.66547524 45.35821331 170.56238793 51.55473328 167.45829773 C60.95936206 162.74629886 70.36015832 158.02673425 79.76171875 153.30859375 C79.76171875 138.12859375 79.76171875 122.94859375 79.76171875 107.30859375 C68.34210093 112.44742177 56.99578533 117.55863316 45.76171875 123.05859375 C34.52650156 128.53311861 23.22624721 133.85024339 11.859375 139.04589844 C9.73015416 140.02440991 7.60778919 141.01805418 5.49438477 142.03027344 C2.76171875 143.30859375 2.76171875 143.30859375 0.44897461 144.15722656 C-1.77690262 144.96130937 -1.77690262 144.96130937 -4.23828125 147.30859375 C-5.1311927 151.14998951 -5.03470027 154.88266816 -4.92578125 158.80859375 C-4.89127887 160.88129238 -4.87367286 162.9543584 -4.875 165.02734375 C-4.85139404 165.94451172 -4.82778809 166.86167969 -4.8034668 167.80664062 C-5.37393487 171.08915429 -6.68904601 172.24339052 -9.23828125 174.30859375 C-11.23828125 174.83984375 -11.23828125 174.83984375 -13.23828125 174.80859375 C-14.22828125 174.8240625 -14.22828125 174.8240625 -15.23828125 174.83984375 C-18.15977256 174.06382262 -19.32973769 172.62242272 -21.23828125 170.30859375 C-21.78417969 167.65136719 -21.78417969 167.65136719 -21.84765625 164.66796875 C-21.87988281 163.59804687 -21.91210938 162.528125 -21.9453125 161.42578125 C-21.95949219 160.31460938 -21.97367187 159.2034375 -21.98828125 158.05859375 C-22.01792969 156.93195313 -22.04757813 155.8053125 -22.078125 154.64453125 C-22.14877037 151.86581354 -22.20149402 149.08793227 -22.23828125 146.30859375 C-22.88748535 146.00904785 -23.53668945 145.70950195 -24.20556641 145.40087891 C-36.13635317 139.89070935 -48.05485077 134.35688215 -59.92578125 128.71875 C-60.7492807 128.32774109 -61.57278015 127.93673218 -62.42123413 127.53387451 C-66.46949712 125.61084945 -70.51621789 123.68465607 -74.56103516 121.75439453 C-76.09144581 121.02631348 -77.62188101 120.29828405 -79.15234375 119.5703125 C-79.80187012 119.25908951 -80.45139648 118.94786652 -81.12060547 118.62721252 C-89.42150024 114.68432494 -97.8326674 111.04442213 -106.23828125 107.30859375 Z " fill="#000000" transform="translate(269.23828125,80.69140625)"/>
<path d="M0 0 C1.0613768 -0.00953201 2.1227536 -0.01906403 3.21629333 -0.02888489 C4.35284866 -0.02797348 5.48940399 -0.02706207 6.66040039 -0.02612305 C7.83768204 -0.03040817 9.01496368 -0.0346933 10.22792053 -0.03910828 C12.71509153 -0.04484561 15.2022793 -0.04535624 17.68945312 -0.04101562 C21.49060744 -0.0378563 25.29098292 -0.06132133 29.09204102 -0.08666992 C31.51065983 -0.08894305 33.92928073 -0.08964635 36.34790039 -0.08862305 C37.48243149 -0.09783279 38.61696259 -0.10704254 39.78587341 -0.11653137 C49.79107028 -0.05798879 49.79107028 -0.05798879 54.57055664 3.2746582 C56.39134388 6.20375071 56.58613117 7.89308219 56.44555664 11.3371582 C55.4109181 14.81058758 54.38615952 16.02511686 51.57055664 18.2746582 C48.83862305 18.78259277 48.83862305 18.78259277 45.67211914 18.79223633 C43.8900708 18.81114929 43.8900708 18.81114929 42.07202148 18.83044434 C40.79278809 18.82234741 39.51355469 18.81425049 38.19555664 18.8059082 C36.87894043 18.80973511 35.56232422 18.81356201 34.20581055 18.81750488 C31.4216023 18.82339544 28.63790815 18.81485234 25.85375977 18.79614258 C22.28906331 18.77335196 18.72557147 18.78647761 15.16091919 18.81043243 C11.75570234 18.82838151 8.3508077 18.81580598 4.94555664 18.8059082 C3.66632324 18.81400513 2.38708984 18.82210205 1.0690918 18.83044434 C-0.11894043 18.81783569 -1.30697266 18.80522705 -2.53100586 18.79223633 C-3.57595215 18.78905396 -4.62089844 18.78587158 -5.69750977 18.78259277 C-9.13117492 18.14418881 -10.29474417 16.98713245 -12.42944336 14.2746582 C-13.6480623 10.53756012 -13.59603174 8.75591352 -12.30444336 5.0246582 C-9.18296972 0.44649687 -5.30731334 0.02629047 0 0 Z " fill="#000000" transform="translate(234.429443359375,348.725341796875)"/>
</svg>
