<?xml version="1.0" encoding="UTF-8"?>
<svg version="1.1" xmlns="http://www.w3.org/2000/svg" width="512" height="512">
<path d="M0 0 C7.02080851 3.55932975 14.09403903 6.9903182 21.20019531 10.37548828 C32.71181855 15.86036836 44.16483143 21.46012567 55.60687256 27.08847046 C61.42177582 29.9486318 67.23874825 32.80457904 73.05566406 35.66064453 C74.78866257 36.51164482 74.78866257 36.51164482 76.55667114 37.37983704 C86.4713279 42.24689969 96.39745235 47.09009225 106.32910156 51.92236328 C109.40992448 53.42217075 112.49060756 54.92226537 115.57128906 56.42236328 C116.34490784 56.79906662 117.11852661 57.17576996 117.91558838 57.56388855 C119.54704902 58.35832446 121.17849802 59.15278427 122.80993652 59.94726562 C124.66381443 60.85002654 126.51774114 61.75268723 128.3717041 62.65527344 C134.69360383 65.733335 141.01393586 68.81458438 147.33258057 71.89932251 C149.37844103 72.89753104 151.42477059 73.89477884 153.47161865 74.89096069 C162.71154606 79.38850059 171.95103971 83.88928011 181.05957031 88.64892578 C182.20321045 89.24527832 183.34685059 89.84163086 184.52514648 90.45605469 C190.41802264 94.03490738 194.33242986 98.67519939 196.45410156 105.23486328 C197.29955417 113.39293193 196.56931774 119.06139957 191.61425781 125.69970703 C185.05223196 133.40089108 174.46905558 137.25799684 165.49731445 141.46801758 C155.35884143 146.23288335 145.35371308 151.25166243 135.35177612 156.29559326 C113.65912544 167.23486328 113.65912544 167.23486328 110.45410156 167.23486328 C110.45963232 167.87170547 110.46516308 168.50854767 110.47086143 169.16468811 C110.60353432 184.68114723 110.70273627 200.19740828 110.76497459 215.71429443 C110.79587494 223.21826586 110.83798125 230.721858 110.90673828 238.22558594 C110.96665868 244.76807193 111.00527851 251.31028315 111.01863253 257.85303593 C111.02643531 261.31554759 111.04469072 264.77727342 111.0884819 268.23953247 C111.13704277 272.11051845 111.13803331 275.98074508 111.13525391 279.85205078 C111.15682556 280.99213089 111.17839722 282.132211 111.20062256 283.30683899 C111.14255988 290.78831045 109.61934851 294.83429919 104.45410156 300.23486328 C103.6175 301.21970703 102.78089844 302.20455078 101.91894531 303.21923828 C64.85258843 343.78025942 12.32361422 369.40576363 -42.80886841 372.35595703 C-48.24184934 372.55692161 -53.67237291 372.57247687 -59.10839844 372.54736328 C-60.34672928 372.54462906 -60.34672928 372.54462906 -61.6100769 372.5418396 C-96.07719677 372.41436661 -128.46487056 365.15624702 -159.54589844 350.23486328 C-160.59511475 349.7347876 -160.59511475 349.7347876 -161.66552734 349.22460938 C-178.10087005 341.27797701 -193.37983104 330.89160505 -206.54589844 318.23486328 C-207.89408886 317.06129562 -209.24812172 315.89440014 -210.60839844 314.73486328 C-215.12860754 310.77968031 -219.49884187 306.67529108 -223.54589844 302.23486328 C-224.11733865 301.6473784 -224.68877886 301.05989351 -225.27753544 300.45460606 C-230.96101379 294.05523785 -231.54791636 289.01749365 -231.43237305 280.64672852 C-231.4431488 279.41646439 -231.45392456 278.18620026 -231.46502686 276.9186554 C-231.4876157 273.57120071 -231.47961552 270.22652643 -231.4575851 266.8792522 C-231.44187412 263.37179274 -231.46585597 259.86460059 -231.48548889 256.35719299 C-231.51663924 249.72746136 -231.51248968 243.09824868 -231.49541432 236.46848494 C-231.47769861 228.91571484 -231.49970533 221.36322023 -231.5249213 213.81049049 C-231.57587199 198.28508981 -231.57211104 182.76035459 -231.54589844 167.23486328 C-245.90089844 160.30486328 -245.90089844 160.30486328 -260.54589844 153.23486328 C-260.87589844 180.29486328 -261.20589844 207.35486328 -261.54589844 235.23486328 C-258.57589844 236.22486328 -258.57589844 236.22486328 -255.54589844 237.23486328 C-248.94442177 241.68075573 -245.30580283 247.87092706 -243.10839844 255.48486328 C-241.71982651 263.19615591 -243.00951155 271.41920112 -247.10839844 278.10986328 C-249.5223516 281.25673504 -252.10189849 283.60266642 -255.26074219 285.99267578 C-256.06503662 286.6051416 -256.86933105 287.21760742 -257.69799805 287.84863281 C-258.61270874 288.53481689 -258.61270874 288.53481689 -259.54589844 289.23486328 C-259.24744522 290.17145279 -258.948992 291.1080423 -258.64149475 292.07301331 C-255.8252205 300.91339981 -253.01480785 309.75563102 -250.21007633 318.59968662 C-248.76806118 323.14609052 -247.32401175 327.69182689 -245.87524414 332.23608398 C-244.47635427 336.6241549 -243.08289872 341.0139178 -241.69314384 345.40489006 C-241.16282491 347.07716795 -240.63057339 348.74883427 -240.09633064 350.41986275 C-239.34656168 352.76617731 -238.60378574 355.11460142 -237.86254883 357.46362305 C-237.64172638 358.14911224 -237.42090393 358.83460144 -237.19338989 359.54086304 C-235.84045738 363.86021493 -235.19902187 367.66299928 -234.54589844 372.23486328 C-258.96589844 372.23486328 -283.38589844 372.23486328 -308.54589844 372.23486328 C-307.84492435 367.32804466 -307.13604638 363.4708743 -305.65991211 358.86328125 C-305.27248337 357.64446259 -304.88505463 356.42564392 -304.48588562 355.16989136 C-304.0619737 353.85558077 -303.63796507 352.54130137 -303.21386719 351.22705078 C-302.77596751 349.85588471 -302.33858361 348.48455383 -301.90168762 347.11306763 C-300.75238164 343.50965675 -299.596537 339.90837768 -298.43914795 336.30755615 C-297.04606345 331.96951293 -295.66047805 327.6290704 -294.27395344 323.28892708 C-293.19218523 319.90315499 -292.1093335 316.51774483 -291.02275085 313.1335144 C-288.47377193 305.18423425 -285.98157399 297.2195998 -283.54589844 289.23486328 C-284.1855957 288.76943115 -284.82529297 288.30399902 -285.484375 287.82446289 C-292.74407251 282.49159565 -298.32704693 276.81076375 -300.03027344 267.62158203 C-300.92898451 258.48909156 -299.64518805 251.95664469 -294.54589844 244.23486328 C-291.26978751 240.52768512 -287.78788117 237.78005292 -283.54589844 235.23486328 C-282.88589844 235.23486328 -282.22589844 235.23486328 -281.54589844 235.23486328 C-281.87589844 204.54486328 -282.20589844 173.85486328 -282.54589844 142.23486328 C-288.15589844 139.59486328 -293.76589844 136.95486328 -299.54589844 134.23486328 C-306.07992397 129.9659666 -312.57020647 124.70090125 -315.54589844 117.23486328 C-316.605375 109.6249691 -316.1525928 103.63810568 -311.63964844 97.33251953 C-306.01343008 91.6958045 -299.47734543 87.92028985 -292.34277344 84.51220703 C-291.47604004 84.09003403 -290.60930664 83.66786102 -289.71630859 83.2328949 C-286.91357904 81.87078496 -284.10498982 80.52129758 -281.29589844 79.17236328 C-279.33634767 78.22380473 -277.37703964 77.27474457 -275.41796875 76.32519531 C-264.01816586 70.81142612 -252.57333555 65.40545945 -241.0625 60.12719727 C-230.97973643 55.48624353 -221.0136621 50.61678285 -211.04589844 45.73486328 C-198.79716257 39.73600611 -186.51531283 33.84826007 -174.12011719 28.15673828 C-164.35928781 23.65610034 -154.70089181 18.95730233 -145.04589844 14.23486328 C-131.57336671 7.64627563 -118.05066057 1.19885152 -104.41699219 -5.05029297 C-100.92297227 -6.65331402 -97.45420049 -8.28672343 -94.01855469 -10.01123047 C-61.14196758 -26.46180057 -30.43623541 -15.45722397 0 0 Z M-89.79589844 10.23486328 C-90.88362549 10.7439624 -91.97135254 11.25306152 -93.09204102 11.77758789 C-106.91386985 18.28516373 -120.6238329 25.02975306 -134.34667969 31.74267578 C-144.14984459 36.5380534 -153.98918533 41.25502081 -163.84277344 45.94580078 C-168.87351329 48.34485302 -173.89684515 50.759348 -178.92089844 53.17236328 C-179.96101074 53.67179443 -181.00112305 54.17122559 -182.07275391 54.68579102 C-184.17808634 55.69672228 -186.28339224 56.70770879 -188.38867188 57.71875 C-192.56698003 59.7251909 -196.74562953 61.73092025 -200.92431641 63.73657227 C-203.00930786 64.7373225 -205.09426868 65.73813654 -207.17919922 66.73901367 C-212.33741003 69.21519609 -217.49596318 71.69065986 -222.65527344 74.16455078 C-231.36005858 78.339323 -240.06363722 82.51647272 -248.75683594 86.71533203 C-249.36677902 87.0099231 -249.97672211 87.30451416 -250.60514832 87.60803223 C-253.68033612 89.09354268 -256.75509523 90.57993355 -259.8293457 92.06738281 C-265.68437571 94.89872608 -271.54591077 97.71505149 -277.42480469 100.49658203 C-278.4919873 101.0024585 -279.55916992 101.50833496 -280.65869141 102.02954102 C-282.65988213 102.97674587 -284.66273253 103.9204548 -286.66748047 104.86010742 C-287.54903809 105.27768311 -288.4305957 105.69525879 -289.33886719 106.12548828 C-290.10739014 106.48674805 -290.87591309 106.84800781 -291.66772461 107.22021484 C-293.70907001 108.20734524 -293.70907001 108.20734524 -295.54589844 110.23486328 C-295.47651777 112.28581332 -295.47651777 112.28581332 -294.54589844 114.23486328 C-292.02663777 115.75413473 -289.64139101 117.01433216 -286.98339844 118.23486328 C-285.58626302 118.90152995 -284.1891276 119.56819661 -282.79199219 120.23486328 C-282.07897949 120.55841797 -281.3659668 120.88197266 -280.63134766 121.21533203 C-278.54589844 122.23486328 -278.54589844 122.23486328 -276.76123047 123.41064453 C-272.3849603 126.16638079 -269.06523954 126.38121225 -263.9299469 125.97364807 C-263.27637445 125.92254995 -262.622802 125.87145183 -261.94942433 125.81880528 C-253.60691943 125.13126429 -245.2992226 124.11169511 -236.9909668 123.10180664 C-235.17902354 122.88455393 -233.36703589 122.66767126 -231.55500793 122.4511261 C-227.68355289 121.98781825 -223.81238431 121.52220958 -219.9414196 121.05482292 C-213.80827165 120.3145932 -207.67430223 119.58133446 -201.54017639 118.84925842 C-184.10771633 116.76775544 -166.67631327 114.67749966 -149.24584961 112.5793457 C-139.59569224 111.41779086 -129.94483934 110.26219595 -120.293212 109.11291796 C-114.20724965 108.387872 -108.12222278 107.65555087 -102.03780544 106.91765773 C-98.24104849 106.45897414 -94.44348679 106.007249 -90.64567375 105.55740166 C-88.89834427 105.34905002 -87.15134283 105.13792357 -85.40472794 104.92366409 C-58.36480363 101.61139743 -58.36480363 101.61139743 -53.21943569 104.57472134 C-50.78575973 106.9889177 -50.68088675 108.86015544 -50.54589844 112.23486328 C-51.30289492 115.48994815 -51.9762692 116.81363007 -54.67190838 118.80701923 C-58.14759689 120.53379666 -61.04869464 120.94449075 -64.90473938 121.39286804 C-66.00145605 121.52534485 -66.00145605 121.52534485 -67.12032861 121.66049796 C-69.56348564 121.95269619 -72.00825294 122.22789048 -74.45336914 122.50317383 C-76.20789933 122.70948896 -77.96230659 122.91685171 -79.71659851 123.12518311 C-84.47528385 123.68729251 -89.23555602 124.23472761 -93.99624658 124.77955604 C-98.972711 125.35160055 -103.94759032 125.93710882 -108.9226532 126.52119446 C-118.34204137 127.62497982 -127.76279368 128.71663877 -137.18409556 129.8039549 C-147.91061863 131.04250469 -158.63555219 132.29455442 -169.36037314 133.54774415 C-191.42047858 136.12514918 -213.4825264 138.6855829 -235.54589844 141.23486328 C-233.45802363 143.38622819 -231.69682441 144.83870073 -228.99023438 146.14501953 C-228.28298721 146.49011063 -227.57574005 146.83520172 -226.84706116 147.19075012 C-225.70025124 147.73852364 -225.70025124 147.73852364 -224.53027344 148.29736328 C-223.73153305 148.6849028 -222.93279266 149.07244232 -222.10984802 149.47172546 C-219.50808521 150.7321782 -216.90211528 151.98364954 -214.29589844 153.23486328 C-212.49398793 154.10522844 -210.69231232 154.97608009 -208.89086914 155.84741211 C-204.52961793 157.95497618 -200.1649415 160.05531616 -195.79864502 162.15240479 C-192.87825191 163.55567151 -189.96018454 164.96374554 -187.04199219 166.37158203 C-179.06359234 170.21078518 -171.06118406 173.99727864 -163.04199219 177.75048828 C-160.25141273 179.05732166 -157.46109433 180.36471117 -154.67089844 181.67236328 C-153.96629486 182.00239349 -153.26169128 182.33242371 -152.53573608 182.67245483 C-138.26969817 189.36094163 -124.110876 196.26368193 -109.97998047 203.23266602 C-101.96212055 207.17778523 -93.91705899 211.04318389 -85.76464844 214.70361328 C-85.03991333 215.0318811 -84.31517822 215.36014893 -83.56848145 215.69836426 C-69.33390345 222.00846934 -52.77721878 223.58452803 -37.89453125 218.29199219 C-29.1454803 214.59896509 -20.63063086 210.47934364 -12.10839844 206.29736328 C-10.55407095 205.53792623 -8.99954283 204.77889969 -7.44482422 204.02026367 C-5.07917208 202.86589251 -2.71362733 201.71130855 -0.34869385 200.5554657 C6.78243113 197.07046587 13.92859912 193.61741908 21.07910156 190.17236328 C28.62715489 186.53298267 36.1728447 182.88890645 43.71191406 179.23095703 C44.41138657 178.89160126 45.11085907 178.55224548 45.83152771 178.2026062 C49.34650419 176.49706747 52.86108458 174.79071737 56.37524414 173.08349609 C62.891958 169.91936096 69.41457351 166.76919568 75.95800781 163.66064453 C77.69002441 162.8362085 77.69002441 162.8362085 79.45703125 161.99511719 C81.6003671 160.97657414 83.74544522 159.961686 85.89257812 158.95117188 C86.83713867 158.50209473 87.78169922 158.05301758 88.75488281 157.59033203 C89.57126221 157.20514404 90.3876416 156.81995605 91.22875977 156.4230957 C93.47043677 155.30970125 93.47043677 155.30970125 95.30769348 153.77638245 C97.51539692 152.19084184 99.4783016 151.3179221 102.02197266 150.38232422 C107.65004205 148.20918443 112.98706767 145.59532909 118.36816406 142.87548828 C119.38147797 142.36741638 120.39479187 141.85934448 121.43881226 141.33587646 C124.65415918 139.72265626 127.86667881 138.10389725 131.07910156 136.48486328 C133.21042385 135.4141762 135.34193285 134.34386073 137.47363281 133.27392578 C140.58958328 131.70989238 143.70494423 130.14475561 146.81817627 128.57531738 C151.32413281 126.30393565 155.83305872 124.04135474 160.3671875 121.82666016 C161.10222504 121.46586365 161.83726257 121.10506714 162.59457397 120.7333374 C163.9161032 120.08606176 165.23996609 119.44351465 166.56680298 118.80718994 C170.25335781 116.99668461 173.33951595 114.90911345 176.45410156 112.23486328 C175.99821214 109.22049668 175.99821214 109.22049668 173.97006226 107.06858826 C173.33105988 106.7553511 172.6920575 106.44211395 172.03369141 106.11938477 C171.30717377 105.75477646 170.58065613 105.39016815 169.8321228 105.01451111 C169.03448517 104.63218826 168.23684753 104.24986542 167.41503906 103.85595703 C166.58316071 103.44378433 165.75128235 103.03161163 164.89419556 102.60694885 C162.21211071 101.28219117 159.52090588 99.97723919 156.82910156 98.67236328 C155.10061832 97.82140522 153.37274693 96.96920315 151.64550781 96.11572266 C141.57689723 91.15492726 131.45062895 86.31569066 121.31951904 81.48422241 C110.98035575 76.5455579 100.69661839 71.49530054 90.41503906 66.43811035 C84.60907365 63.58250507 78.80104187 60.73110774 72.99316406 57.87939453 C71.83375305 57.31002167 70.67434204 56.7406488 69.47979736 56.15402222 C57.52098325 50.2827105 45.54790699 44.44084255 33.57128906 38.60595703 C31.93585665 37.80911435 30.30044004 37.01223922 28.66503906 36.21533203 C27.44865753 35.62261002 27.44865753 35.62261002 26.20770264 35.01791382 C19.56973665 31.78188312 12.93723497 28.53475687 6.30566406 25.28564453 C4.24707949 24.27748778 2.18848579 23.26934964 0.12988281 22.26123047 C-2.85868445 20.79766439 -5.84700988 19.33361722 -8.83447266 17.86779785 C-14.02830633 15.31945289 -19.22550496 12.77848019 -24.4329834 10.25811768 C-26.27492815 9.3660903 -28.11425672 8.46866475 -29.953125 7.5703125 C-38.96385013 3.28967186 -46.98089627 1.88581916 -56.92089844 1.92236328 C-57.78972656 1.90625 -58.65855469 1.89013672 -59.55371094 1.87353516 C-70.61402433 1.86535445 -79.92873391 5.54650474 -89.79589844 10.23486328 Z M-210.54589844 176.23486328 C-210.87448167 190.31720228 -211.11962187 204.39893845 -211.27126884 218.48433781 C-211.34408552 225.02631874 -211.44270418 231.56571041 -211.60205078 238.10620117 C-211.75509784 244.42828401 -211.83806522 250.74789045 -211.87417984 257.07168388 C-211.89988608 259.4739726 -211.95008837 261.87613806 -212.02611923 264.27736092 C-212.69017609 279.78847826 -212.69017609 279.78847826 -205.71602058 293.08988857 C-202.82240349 296.03173847 -199.77103588 298.66639106 -196.54589844 301.23486328 C-195.50826969 302.12824366 -194.47468492 303.02635453 -193.44625854 303.93031311 C-190.8838823 306.14181061 -188.24581764 308.19431741 -185.54589844 310.23486328 C-184.59199219 310.98123047 -183.63808594 311.72759766 -182.65527344 312.49658203 C-175.59151884 317.94233002 -168.2780667 322.79365051 -160.54589844 327.23486328 C-159.60883057 327.77626953 -159.60883057 327.77626953 -158.65283203 328.32861328 C-135.60417704 341.48948097 -110.76196072 348.81048272 -84.54589844 352.23486328 C-83.87284668 352.33057617 -83.19979492 352.42628906 -82.50634766 352.52490234 C-32.31171406 359.03399032 20.90422174 344.33424347 61.11523438 313.98095703 C64.32418746 311.50530385 67.40762654 308.90661214 70.45410156 306.23486328 C71.30230469 305.49623047 72.15050781 304.75759766 73.02441406 303.99658203 C84.69654879 295.02814179 84.69654879 295.02814179 91.70019722 283.1634264 C91.69743184 281.96186924 91.69743184 281.96186924 91.6946106 280.73603821 C91.69735992 279.81477142 91.70010925 278.89350464 91.70294189 277.94432068 C91.69575134 276.93587601 91.68856079 275.92743134 91.68115234 274.88842773 C91.68159042 273.29306183 91.68159042 273.29306183 91.68203735 271.66546631 C91.68064179 268.1429433 91.66506973 264.62063068 91.64941406 261.09814453 C91.64568474 258.65862646 91.64283739 256.21910689 91.64083862 253.77958679 C91.6331958 247.35321938 91.61354166 240.92694211 91.59143066 234.50061035 C91.57098626 227.94524353 91.56183991 221.38986216 91.55175781 214.83447266 C91.53029644 201.9678977 91.49653609 189.10138528 91.45410156 176.23486328 C88.43750044 177.66233627 85.42112416 179.09028377 82.40478516 180.51831055 C81.55899399 180.91853676 80.71320282 181.31876297 79.84178162 181.73111725 C72.56944993 185.17452514 65.31774497 188.65864261 58.07910156 192.17236328 C57.09792358 192.64802734 57.09792358 192.64802734 56.09692383 193.13330078 C46.09500799 197.98328417 36.11150017 202.87045349 26.13378906 207.77001953 C24.96860748 208.34211655 23.8034259 208.91421356 22.60293579 209.50364685 C16.77431079 212.36600252 10.94672362 215.2304457 5.12060547 218.09790039 C-4.31225528 222.73738027 -13.74618257 227.37558852 -23.23730469 231.89501953 C-23.89641846 232.21245117 -24.55553223 232.52988281 -25.23461914 232.85693359 C-33.95773288 236.9746554 -42.96688116 238.71919025 -52.54589844 239.23486328 C-53.26390625 239.28771484 -53.98191406 239.34056641 -54.72167969 239.39501953 C-81.64149221 240.46437305 -104.70701909 226.28453268 -128.05517578 214.80981445 C-138.98039497 209.44169811 -149.94697614 204.20537582 -161.0144043 199.13549805 C-167.85600584 195.98662466 -174.64574597 192.74698594 -181.41308594 189.44189453 C-182.26265869 189.02701782 -183.11223145 188.61214111 -183.98754883 188.18469238 C-188.20869875 186.12097904 -192.42637494 184.05042099 -196.640625 181.97265625 C-198.17413675 181.2201804 -199.7076646 180.46773738 -201.24121094 179.71533203 C-201.9512326 179.36291946 -202.66125427 179.0105069 -203.39279175 178.64741516 C-206.8080949 176.84629987 -206.8080949 176.84629987 -210.54589844 176.23486328 Z " fill="#000000" transform="translate(315.5458984375,78.76513671875)"/>
</svg>
